<?xml version="1.0" encoding="UTF-8"?>
<svg version="1.1" xmlns="http://www.w3.org/2000/svg" width="100" height="100">
<path d="M0 0 C23.76 0 47.52 0 72 0 C72 30.36 72 60.72 72 92 C48.24 92 24.48 92 0 92 C0 61.64 0 31.28 0 0 Z M17 14 C16.83333333 17.5 16.83333333 17.5 17 21 C17.33 21.33 17.66 21.66 18 22 C18.375 24.375 18.375 24.375 18 27 C15.5 28.6875 15.5 28.6875 13 30 C13 30.66 13 31.32 13 32 C18.28 32 23.56 32 29 32 C27.75453595 28.26360784 26.36595047 27.81243487 23 26 C23.144375 25.484375 23.28875 24.96875 23.4375 24.4375 C24.16476867 21.28600245 24.70161001 18.22261187 25 15 C23.16734675 12.73160017 23.16734675 12.73160017 20.4375 12.8125 C18.05310277 12.72996677 18.05310277 12.72996677 17 14 Z M42 16 C42 17.32 42 18.64 42 20 C47.28 20 52.56 20 58 20 C58 18.68 58 17.36 58 16 C52.72 16 47.44 16 42 16 Z M42 26 C42 27.32 42 28.64 42 30 C47.28 30 52.56 30 58 30 C58 28.68 58 27.36 58 26 C52.72 26 47.44 26 42 26 Z M14 46 C14 47.32 14 48.64 14 50 C23.24 50 32.48 50 42 50 C42 48.68 42 47.36 42 46 C32.76 46 23.52 46 14 46 Z M52 46 C52 47.32 52 48.64 52 50 C53.98 50 55.96 50 58 50 C58 48.68 58 47.36 58 46 C56.02 46 54.04 46 52 46 Z M14 58 C14 59.32 14 60.64 14 62 C21.26 62 28.52 62 36 62 C36 60.68 36 59.36 36 58 C28.74 58 21.48 58 14 58 Z M52 58 C52 59.32 52 60.64 52 62 C53.98 62 55.96 62 58 62 C58 60.68 58 59.36 58 58 C56.02 58 54.04 58 52 58 Z M14 70 C14 71.32 14 72.64 14 74 C23.24 74 32.48 74 42 74 C42 72.68 42 71.36 42 70 C32.76 70 23.52 70 14 70 Z M52 70 C52 71.32 52 72.64 52 74 C53.98 74 55.96 74 58 74 C58 72.68 58 71.36 58 70 C56.02 70 54.04 70 52 70 Z " fill="#373737" transform="translate(14,4)"/>
</svg>
